<?xml version="1.0" encoding="UTF-8" standalone="no"?>
<svg
   xmlns:dc="http://purl.org/dc/elements/1.1/"
   xmlns:cc="http://creativecommons.org/ns#"
   xmlns:rdf="http://www.w3.org/1999/02/22-rdf-syntax-ns#"
   xmlns:svg="http://www.w3.org/2000/svg"
   xmlns="http://www.w3.org/2000/svg"
   xmlns:sodipodi="http://sodipodi.sourceforge.net/DTD/sodipodi-0.dtd"
   xmlns:inkscape="http://www.inkscape.org/namespaces/inkscape"
   version="1.1"
   viewBox="0 0 512 512"
   enable-background="new 0 0 512 512"
   id="svg24"
   sodipodi:docname="sun.svg"
   inkscape:version="0.92.3 (2405546, 2018-03-11)">
  <metadata
     id="metadata30">
    <rdf:RDF>
      <cc:Work
         rdf:about="">
        <dc:format>image/svg+xml</dc:format>
        <dc:type
           rdf:resource="http://purl.org/dc/dcmitype/StillImage" />
      </cc:Work>
    </rdf:RDF>
  </metadata>
  <defs
     id="defs28" />
  <sodipodi:namedview
     pagecolor="#ffffff"
     bordercolor="#666666"
     borderopacity="1"
     objecttolerance="10"
     gridtolerance="10"
     guidetolerance="10"
     inkscape:pageopacity="0"
     inkscape:pageshadow="2"
     inkscape:window-width="1920"
     inkscape:window-height="975"
     id="namedview26"
     showgrid="false"
     inkscape:zoom="0.4609375"
     inkscape:cx="253.83051"
     inkscape:cy="256"
     inkscape:window-x="0"
     inkscape:window-y="40"
     inkscape:window-maximized="1"
     inkscape:current-layer="svg24" />
  <g
     id="g22"
     style="fill:#cccccc">
    <g
       id="g20"
       style="fill:#cccccc">
      <path
         d="m256,105.5c-83.9,0-152.2,68.3-152.2,152.2 0,83.9 68.3,152.2 152.2,152.2 83.9,0 152.2-68.3 152.2-152.2 0-84-68.3-152.2-152.2-152.2zm0,263.5c-61.4,0-111.4-50-111.4-111.4 0-61.4 50-111.4 111.4-111.4 61.4,0 111.4,50 111.4,111.4 0,61.4-50,111.4-111.4,111.4z"
         id="path2"
         style="fill:#cccccc" />
      <path
         d="m256,74.8c11.3,0 20.4-9.1 20.4-20.4v-23c0-11.3-9.1-20.4-20.4-20.4-11.3,0-20.4,9.1-20.4,20.4v23c2.84217e-14,11.3 9.1,20.4 20.4,20.4z"
         id="path4"
         style="fill:#cccccc" />
      <path
         d="m256,437.2c-11.3,0-20.4,9.1-20.4,20.4v22.9c0,11.3 9.1,20.4 20.4,20.4 11.3,0 20.4-9.1 20.4-20.4v-22.9c0-11.2-9.1-20.4-20.4-20.4z"
         id="path6"
         style="fill:#cccccc" />
      <path
         d="m480.6,235.6h-23c-11.3,0-20.4,9.1-20.4,20.4 0,11.3 9.1,20.4 20.4,20.4h23c11.3,0 20.4-9.1 20.4-20.4 0-11.3-9.1-20.4-20.4-20.4z"
         id="path8"
         style="fill:#cccccc" />
      <path
         d="m54.4,235.6h-23c-11.3,0-20.4,9.1-20.4,20.4 0,11.3 9.1,20.4 20.4,20.4h22.9c11.3,0 20.4-9.1 20.4-20.4 0.1-11.3-9.1-20.4-20.3-20.4z"
         id="path10"
         style="fill:#cccccc" />
      <path
         d="M400.4,82.8L384.1,99c-8,8-8,20.9,0,28.9s20.9,8,28.9,0l16.2-16.2c8-8,8-20.9,0-28.9S408.3,74.8,400.4,82.8z"
         id="path12"
         style="fill:#cccccc" />
      <path
         d="m99,384.1l-16.2,16.2c-8,8-8,20.9 0,28.9 8,8 20.9,8 28.9,0l16.2-16.2c8-8 8-20.9 0-28.9s-20.9-7.9-28.9,0z"
         id="path14"
         style="fill:#cccccc" />
      <path
         d="m413,384.1c-8-8-20.9-8-28.9,0-8,8-8,20.9 0,28.9l16.2,16.2c8,8 20.9,8 28.9,0 8-8 8-20.9 0-28.9l-16.2-16.2z"
         id="path16"
         style="fill:#cccccc" />
      <path
         d="m99,127.9c8,8 20.9,8 28.9,0 8-8 8-20.9 0-28.9l-16.2-16.2c-8-8-20.9-8-28.9,0-8,8-8,20.9 0,28.9l16.2,16.2z"
         id="path18"
         style="fill:#cccccc" />
    </g>
  </g>
</svg>
